<svg width="20" height="20" viewBox="0 0 20 20" fill="none" xmlns="http://www.w3.org/2000/svg">
<path fill-rule="evenodd" clip-rule="evenodd" d="M10 20C15.5228 20 20 15.5228 20 10C20 4.47715 15.5228 0 10 0C4.47715 0 0 4.47715 0 10C0 15.5228 4.47715 20 10 20ZM10 16C8.89543 16 8 15.1046 8 14V12H6C4.89543 12 4 11.1046 4 10C4 8.89543 4.89543 8 6 8H8V6C8 4.89543 8.89543 4 10 4C11.1046 4 12 4.89543 12 6V8H14C15.1046 8 16 8.89543 16 10C16 11.1046 15.1046 12 14 12H12V14C12 15.1046 11.1046 16 10 16Z" fill="#C4C4C4"/>
</svg>
